<?xml version="1.0" encoding="UTF-8" standalone="no"?>
<svg
   xmlns:dc="http://purl.org/dc/elements/1.1/"
   xmlns:cc="http://creativecommons.org/ns#"
   xmlns:rdf="http://www.w3.org/1999/02/22-rdf-syntax-ns#"
   xmlns:svg="http://www.w3.org/2000/svg"
   xmlns="http://www.w3.org/2000/svg"
   xmlns:sodipodi="http://sodipodi.sourceforge.net/DTD/sodipodi-0.dtd"
   xmlns:inkscape="http://www.inkscape.org/namespaces/inkscape"
   viewBox="0.0 0.0 348.0 348.0"
   fill="none"
   version="1.1"
   id="svg831"
   sodipodi:docname="Seven Deadly Sins.svg"
   inkscape:version="0.92.4 (5da689c313, 2019-01-14)">
  <metadata
     id="metadata837">
    <rdf:RDF>
      <cc:Work
         rdf:about="">
        <dc:format>image/svg+xml</dc:format>
        <dc:type
           rdf:resource="http://purl.org/dc/dcmitype/StillImage" />
      </cc:Work>
    </rdf:RDF>
  </metadata>
  <defs
     id="defs835" />
  <sodipodi:namedview
     pagecolor="#ffffff"
     bordercolor="#666666"
     borderopacity="1"
     objecttolerance="10"
     gridtolerance="10"
     guidetolerance="10"
     inkscape:pageopacity="0"
     inkscape:pageshadow="2"
     inkscape:window-width="1366"
     inkscape:window-height="745"
     id="namedview833"
     showgrid="false"
     inkscape:zoom="1.6609195"
     inkscape:cx="117.37334"
     inkscape:cy="174"
     inkscape:window-x="-8"
     inkscape:window-y="-8"
     inkscape:window-maximized="1"
     inkscape:current-layer="svg831" />
  <path
     d="M5.079 5.776h336.913v337.67H5.08z"
     stroke-width="2"
     stroke="#000"
     id="path827" />
  <path
     d="M282.734 40.554c0-8.376 6.966-15.165 15.56-15.165 4.126 0 8.084 1.597 11.001 4.441 2.918 2.844 4.558 6.702 4.558 10.724 0 8.376-6.966 15.165-15.56 15.165-8.593 0-15.559-6.79-15.559-15.165z"
     stroke-width="2"
     stroke="#000"
     id="path829" />
  <path
     inkscape:connector-curvature="0"
     style="stroke:#000000;stroke-width:4.88968134"
     d="m 94.791804,95.000002 c 0,-20.742632 16.813476,-37.555159 37.556356,-37.555159 9.95872,0 19.51194,3.954869 26.55256,10.997853 7.04303,7.042985 11.0014,16.597078 11.0014,26.557306 0,20.742628 -16.81347,37.555158 -37.55637,37.555158 -20.74047,0 -37.553946,-16.81501 -37.553946,-37.555158 z"
     id="path829-5" />
  <path
     inkscape:connector-curvature="0"
     style="stroke:#000000;stroke-width:4.88968134"
     d="m 172.37564,95 c 0,-20.742632 16.81348,-37.555159 37.55636,-37.555159 9.95872,0 19.51194,3.954869 26.55256,10.997853 7.04303,7.042985 11.0014,16.597078 11.0014,26.557306 0,20.74263 -16.81347,37.55516 -37.55637,37.55516 -20.74047,0 -37.55395,-16.81501 -37.55395,-37.55516 z"
     id="path829-5-6" />
  <path
     inkscape:connector-curvature="0"
     style="stroke:#000000;stroke-width:4.88968134"
     d="m 44.929275,157.14187 c 0,-20.74263 16.81347,-37.55516 37.55635,-37.55516 9.95872,0 19.511945,3.95487 26.552565,10.99785 7.04303,7.04299 11.0014,16.59708 11.0014,26.55731 0,20.74262 -16.81347,37.55515 -37.556375,37.55515 -20.74047,0 -37.55394,-16.81501 -37.55394,-37.55515 z"
     id="path829-5-4" />
  <path
     inkscape:connector-curvature="0"
     style="stroke:#000000;stroke-width:4.88968134"
     d="m 220.7355,157.14187 c 0,-20.74264 16.81347,-37.55516 37.55635,-37.55516 9.95872,0 19.51194,3.95487 26.55256,10.99785 7.04303,7.04299 11.0014,16.59708 11.0014,26.55731 0,20.74262 -16.81347,37.55515 -37.55637,37.55515 -20.74047,0 -37.55394,-16.81501 -37.55394,-37.55515 z"
     id="path829-5-9" />
  <path
     inkscape:connector-curvature="0"
     style="stroke:#000000;stroke-width:4.88968134"
     d="m 61.185327,235.41177 c 0,-20.74264 16.813472,-37.55516 37.556348,-37.55516 9.958715,0 19.511935,3.95487 26.552555,10.99785 7.04303,7.04299 11.0014,16.59708 11.0014,26.55731 0,20.74262 -16.81347,37.55515 -37.556365,37.55515 -20.740466,0 -37.553938,-16.81501 -37.553938,-37.55515 z"
     id="path829-5-92" />
  <path
     inkscape:connector-curvature="0"
     style="stroke:#000000;stroke-width:4.88968134"
     d="m 208.69398,234.20762 c 0,-20.74264 16.81348,-37.55516 37.55636,-37.55516 9.95872,0 19.51194,3.95487 26.55256,10.99785 7.04303,7.04299 11.0014,16.59708 11.0014,26.55731 0,20.74262 -16.81347,37.55515 -37.55637,37.55515 -20.74047,0 -37.55395,-16.81501 -37.55395,-37.55515 z"
     id="path829-5-1" />
  <path
     inkscape:connector-curvature="0"
     style="stroke:#000000;stroke-width:4.88968134"
     d="m 134.63862,264.31142 c 0,-20.74263 16.81347,-37.55516 37.55635,-37.55516 9.95872,0 19.51194,3.95487 26.55256,10.99785 7.04303,7.04299 11.0014,16.59708 11.0014,26.55731 0,20.74263 -16.81347,37.55516 -37.55637,37.55516 -20.74047,0 -37.55394,-16.81501 -37.55394,-37.55516 z"
     id="path829-5-2" />
</svg>
